<svg width="160" height="160" viewBox="0 0 160 160" xmlns="http://www.w3.org/2000/svg">
  <defs>
    <linearGradient id="engineCore" x1="28" y1="24" x2="132" y2="136" gradientUnits="userSpaceOnUse">
      <stop offset="0%" stop-color="#1D4ED8"/>
      <stop offset="50%" stop-color="#0EA5E9"/>
      <stop offset="100%" stop-color="#14B8A6"/>
    </linearGradient>
    <linearGradient id="gearFill" x1="48" y1="48" x2="112" y2="112" gradientUnits="userSpaceOnUse">
      <stop offset="0%" stop-color="#FFFFFF"/>
      <stop offset="100%" stop-color="#EAF8FF"/>
    </linearGradient>
    <radialGradient id="shine" cx="50%" cy="28%" r="75%">
      <stop offset="0%" stop-color="#FFFFFF" stop-opacity="0.45"/>
      <stop offset="100%" stop-color="#FFFFFF" stop-opacity="0"/>
    </radialGradient>
  </defs>
  <rect x="20" y="20" width="120" height="120" rx="34" fill="url(#engineCore)"/>
  <ellipse cx="80" cy="40" rx="48" ry="20" fill="url(#shine)"/>
  <g fill="url(#gearFill)">
    <circle cx="80" cy="80" r="24"/>
    <rect x="77" y="43" width="6" height="14" rx="2"/>
    <rect x="77" y="103" width="6" height="14" rx="2"/>
    <rect x="103" y="77" width="14" height="6" rx="2"/>
    <rect x="43" y="77" width="14" height="6" rx="2"/>
    <rect x="96" y="52" width="6" height="12" rx="2" transform="rotate(45 99 58)"/>
    <rect x="58" y="96" width="6" height="12" rx="2" transform="rotate(45 61 102)"/>
    <rect x="96" y="96" width="6" height="12" rx="2" transform="rotate(-45 99 102)"/>
    <rect x="58" y="52" width="6" height="12" rx="2" transform="rotate(-45 61 58)"/>
  </g>
  <path d="M68 66H95L82 79H93L69 95H84L97 81H85L100 66Z" fill="#0EA5E9"/>
  <circle cx="80" cy="80" r="7" fill="#FFFFFF"/>
  <path d="M38 94C52 118 91 128 120 96" fill="none" stroke="#FFFFFF" stroke-width="8" stroke-linecap="round" opacity="0.28"/>
  <circle cx="116" cy="44" r="6" fill="#FFFFFF" opacity="0.9"/>
  <circle cx="44" cy="118" r="4.5" fill="#FFFFFF" opacity="0.6"/>
</svg>